# xmcd CD database file
#
# Track frame offsets:
#	150
#	24807
#	47006
#	64946
#	88371
#	106818
#	123290
#	141252
#	167349
#	186207
#	205908
#	232536
#	245418
#	260066
#	283983
#	302543
#	316572
#
# Disc length: 4468 seconds
#
# Revision: 1
# Processed by: cddbd v1.5.1PL0 Copyright (c) Steve Scherf et al.
# Submitted via: CDex 1.51
#
DISCID=e1117211
DTITLE=Hadara Levin Areddy - The Move
DYEAR=1900
DGENRE=Jazz
TTITLE0=Rap of Faith
TTITLE1=Break Me Down
TTITLE2=Blue Eyed Shadow (gotta get laid tonight)
TTITLE3=Brooklyn Beat
TTITLE4=The Move
TTITLE5=Sexual Underground
TTITLE6=Music Make No Sense
TTITLE7=Hot Stuff
TTITLE8=All I Want
TTITLE9=R and B
TTITLE10=White Skin Bound (rap out your heart)
TTITLE11=Falling in Love
TTITLE12=Magic Time
TTITLE13=It Just ain't Good Enough
TTITLE14=A Miracle at a Time
TTITLE15=Your Smile
TTITLE16=Schizophrenia
EXTD=
EXTT0=
EXTT1=
EXTT2=
EXTT3=
EXTT4=
EXTT5=
EXTT6=
EXTT7=
EXTT8=
EXTT9=
EXTT10=
EXTT11=
EXTT12=
EXTT13=
EXTT14=
EXTT15=
EXTT16=
PLAYORDER=
